<svg id="Layer_1" xmlns="http://www.w3.org/2000/svg" viewBox="0 0 162.9 71.2"><style>.st0{fill:#fff}</style><path class="st0" d="M81.3 21.1v29h-5.1V37.4h-7.3v12.7h-5.1v-29h5.1v11.4h7.3V21.1zM109.7 42c0 2.4-.8 4.5-2.5 6.1-1.7 1.6-3.8 2.4-6.3 2.4s-4.7-.8-6.4-2.4c-1.7-1.6-2.6-3.6-2.6-6.1V21h5.2v21.2c0 1 .4 1.9 1.1 2.6.7.7 1.6 1 2.7 1s1.9-.3 2.6-1c.7-.7 1.1-1.5 1.1-2.5V21.1h5.2V42zM117.8 21.1H135v4.8h-6v24.2h-5.3V25.9h-5.9zM162.5 29.8c0 2.1-.7 3.8-2 5.1 1.6 1.5 2.4 3.4 2.4 5.6v2c0 2.2-.8 4.1-2.4 5.6-1.6 1.5-3.5 2.3-5.8 2.3h-.3c-2.3 0-4.2-.8-5.8-2.3-1.6-1.6-2.4-3.5-2.4-5.7v-2c0-2.2.8-4.1 2.4-5.6-1.3-1.5-2-3.2-2-5.1v-1.6c0-2.1.8-3.8 2.3-5.3 1.5-1.5 3.3-2.2 5.5-2.2h.4c2.2 0 4 .7 5.5 2.2 1.5 1.5 2.3 3.2 2.3 5.3v1.7zm-4.8 10.8c0-.9-.3-1.6-.9-2.2-.6-.6-1.3-.9-2.2-.9s-1.6.3-2.2.9-.9 1.3-.9 2.2v2.1c0 .9.3 1.6.9 2.2.6.6 1.4.9 2.3.9.8 0 1.5-.3 2.1-.9.6-.6.9-1.3.9-2.2v-2.1zm-.4-12.3c0-.8-.3-1.5-.8-2-.5-.6-1.2-.8-2-.8s-1.5.3-2 .8c-.5.6-.8 1.2-.8 2V30a2.732 2.732 0 0 0 2.7 2.7h.3c.7 0 1.3-.3 1.8-.8s.7-1.2.7-1.9v-1.7zM38 11L19 0 0 11v21.9l5.9-3.4H6h-.1V14.4L19 6.9l13.1 7.5v15.1l-4.6 2.7 6 3.4-6 3.4 4.6 2.7v15.1L19 64.3 5.9 56.8V41.7l1.9-1.2-5.9-3.4L0 38.3v21.9l19 11 19-11v-22l-4.6-2.6 4.6-2.7z"/><path fill="#00ffce" d="M0 32.9l5.9-3.4 4.6 2.7 8.5-5 14.5 8.4-6 3.4-8.6-4.8-2.5 1.4 8.4 5-5.8 3.3z"/></svg>