<svg width="36" height="36" viewBox="0 0 36 36" fill="none" xmlns="http://www.w3.org/2000/svg">
<circle cx="18" cy="18" r="18" fill="white"/>
<path d="M24.5 16.25C24.5 18.9789 23.1 21.5 21.75 21.5C20.4 21.5 19 18.9789 19 16.25C19 13.5211 20.4 11 21.75 11C23.1 11 24.5 13.5211 24.5 16.25Z" stroke="black" stroke-width="1.5"/>
<path d="M21.75 21.5C21.75 21.5 13.25 19.75 12.25 19.5C11.25 19.25 10 17.9393 10 16.25C10 14.5607 11.25 13.25 12.25 13C13.25 12.75 21.75 11 21.75 11" stroke="black" stroke-width="1.5"/>
<path d="M12 19.75V23.5C12 24.6046 12.8954 25.5 14 25.5H14.5C15.6046 25.5 16.5 24.6046 16.5 23.5V20.75" stroke="black" stroke-width="1.5"/>
</svg>
